<svg xmlns="http://www.w3.org/2000/svg" fill="none" viewBox="0 0 40 40"><defs/><path fill="#D5D7D6" fill-rule="evenodd" d="M28.57 19.765c-.37.361-.773.707-1.21 1.037-2.615 1.976-6.318 3.257-10.492 3.257-4.174 0-7.878-1.28-10.493-3.257a11.754 11.754 0 01-2.186-2.125 12.578 12.578 0 01.53-6.367c1.757 3.296 6.533 5.66 12.149 5.66 5.16 0 9.611-1.996 11.662-4.877.306 1.083.47 2.226.47 3.407 0 1.13-.15 2.224-.43 3.265zM5.683 22.77A12.495 12.495 0 0016.5 29c4.293 0 8.08-2.164 10.331-5.462-2.77 1.583-6.222 2.52-9.963 2.52-4.312 0-8.24-1.246-11.184-3.288zm19.184-8.947c1.463-.962 2.332-2.07 2.684-3.168a12.558 12.558 0 00-3.477-4.1c-1.114 1.517-3.921 2.592-7.207 2.592-3.545 0-6.532-1.251-7.439-2.957a12.568 12.568 0 00-3.424 3.517c.076 1.39.974 2.875 2.862 4.115 1.958 1.287 4.781 2.149 8 2.149 3.22 0 6.043-.862 8.001-2.149zm-2.483-8.354A12.445 12.445 0 0016.5 4c-1.908 0-3.715.427-5.333 1.191a.89.89 0 00.143.23c.175.216.5.494 1.026.77 1.057.554 2.656.956 4.532.956 1.875 0 3.474-.402 4.53-.956.49-.256.804-.513.987-.722z" clip-rule="evenodd"/><path fill="#E93639" fill-rule="evenodd" d="M16.495 26.243c-.832-.949-.592-2.432.534-3.002 2.77-1.403 5.318-2.182 8.972-2.182s6.202.779 8.971 2.182c1.126.57 1.366 2.053.534 3.002l-1.42 1.621c-2.308-1.275-4.885-2.022-8.086-2.022-3.258 0-5.616.775-8.05 2.062l-1.455-1.66zm2.472 2.822l5.53 6.311a2 2 0 003.008 0l5.567-6.354c-2.027-1.066-4.277-1.68-7.072-1.68-2.812 0-4.87.62-7.033 1.723z" clip-rule="evenodd"/></svg>