<svg xmlns="http://www.w3.org/2000/svg" fill="none" viewBox="0 0 40 40"><defs/><path fill="#D5D7D6" fill-rule="evenodd" d="M7.125 4C5.951 4 5 4.93 5 6.077v22.846C5 30.07 5.951 31 7.125 31h12.75C21.049 31 22 30.07 22 28.923V6.077C22 4.93 21.049 4 19.875 4H7.125zM13.5 28.923a1.05 1.05 0 001.063-1.038 1.05 1.05 0 00-1.063-1.039 1.05 1.05 0 00-1.063 1.039 1.05 1.05 0 001.063 1.038z" clip-rule="evenodd"/><path fill="#E93639" fill-rule="evenodd" d="M19.444 20a2 2 0 012-2h7.112a2 2 0 012 2v2H33a2 2 0 012 2v10a2 2 0 01-2 2H17a2 2 0 01-2-2V24a2 2 0 012-2h2.444v-2zm2.223 2h6.667v-1.5a.5.5 0 00-.5-.5h-5.667a.5.5 0 00-.5.5V22z" clip-rule="evenodd"/></svg>