<svg xmlns="http://www.w3.org/2000/svg" fill="none" viewBox="0 0 40 40"><defs/><path fill="#D5D7D6" d="M1.998 25h26.004c.547 0 .998-.452.998-1s-.45-1-.998-1H1.998C1.45 23 1 23.452 1 24c0 .56.45 1 .998 1zM3.794 4h22.412c.44 0 .794.376.794.843v15.314c0 .467-.354.843-.794.843H3.794c-.44 0-.794-.376-.794-.843V4.843C3 4.376 3.354 4 3.794 4z"/><g fill="#E93639" style="mix-blend-mode:multiply"><path d="M27.024 20c-2.298 0-4.524.39-6.62 1.168a17.458 17.458 0 00-4.52 2.469c-.48.366-.479 1.076-.023 1.474l1.503 1.313c.378.33.939.325 1.338.021a13.056 13.056 0 013.37-1.838 14.27 14.27 0 014.952-.874c3.07 0 5.975.948 8.284 2.68.4.301.96.302 1.335-.03l1.502-1.326c.453-.4.452-1.109-.03-1.472a17.468 17.468 0 00-4.496-2.436A19.267 19.267 0 0027.024 20z"/><path d="M33.286 28.254c.415.35.41.975.031 1.363l-5.548 5.668a1 1 0 01-1.414.015l-3.36-3.29-2.299-2.265c-.387-.381-.402-1.006.006-1.364a9.709 9.709 0 012.444-1.57A9.55 9.55 0 0127.058 26c1.335 0 2.612.27 3.82.8a8.82 8.82 0 012.408 1.454z"/></g></svg>